o Tile
v -0.75 0.7 -1
v 0.75 0.7 -1
v 0.75 0 -1
v -0.75 0 -1
v 0.8 0.7 -0.95
v 0.8 0 -0.95
v 0.8 0.7 0.95
v 0.8 0 0.95
v 0.75 0.7 1
v 0.75 0 1
v -0.75 0.7 1
v -0.75 0 1
v -0.8 0.7 0.95
v -0.8 0 0.95
v -0.8 0.7 -0.95
v -0.8 0 -0.95
vn 0 0 -1.5
vn 0.050000000000000044 0 -0.050000000000000044
vn 1.9 0 0
vn 0.050000000000000044 0 0.050000000000000044
vn 0 0 1.5
vn -0.050000000000000044 0 0.050000000000000044
vn -1.9 0 0
vn -0.050000000000000044 0 -0.050000000000000044
vn 0 1 0
vn 0 -1 0
vt 0.82758620689655171 0
vt 0.82758620689655171 1
vt 1 1
vt 1 0
vt 0.80172413793103448 0
vt 0.82758620689655171 0.025000000000000022
vt 0.82758620689655171 0.975
vt 0.80172413793103448 1
vt 0.025862068965517241 1
vt 0 0.975
vt 0 0.025000000000000022
vt 0.025862068965517241 0
g Tile
f 1/1/1 2/2/1 3/3/1 4/4/1
f 2/1/2 5/2/2 6/3/2 3/4/2
f 5/1/3 7/2/3 8/3/3 6/4/3
f 7/1/4 9/2/4 10/3/4 8/4/4
f 9/1/5 11/2/5 12/3/5 10/4/5
f 11/1/6 13/2/6 14/3/6 12/4/6
f 13/1/7 15/2/7 16/3/7 14/4/7
f 15/1/8 1/2/8 4/3/8 16/4/8
f 1/5/9 15/6/9 13/7/9
f 1/5/9 13/7/9 11/8/9
f 1/5/9 11/8/9 9/9/9
f 1/5/9 9/9/9 7/10/9
f 1/5/9 7/10/9 5/11/9
f 5/11/9 2/12/9 1/5/9
f 14/7/10 16/6/10 4/5/10
f 12/8/10 14/7/10 4/5/10
f 10/9/10 12/8/10 4/5/10
f 8/10/10 10/9/10 4/5/10
f 6/11/10 8/10/10 4/5/10
f 4/5/10 3/12/10 6/11/10
